<svg height="512" viewBox="0 0 128 128" width="512" xmlns="http://www.w3.org/2000/svg"><path d="m90.092 58.763a25.96 25.96 0 0 1 -10.457 20.737 6.106 6.106 0 0 0 -2.527 4.874v7.872h-27.08v-8.63a6.061 6.061 0 0 0 -2.3-4.7 26.023 26.023 0 0 1 17.438-46.248 26.24 26.24 0 0 1 24.926 26.095z" fill="#ffc4df"/><path d="m67.611 45.1-12.882 3.693-.317 17.13 7.011-1.92.154 19.101 13.811-29.276-8.931 2.541z" fill="#ff5ca8"/><path d="m49.737 101.259h28.667v8.999h-28.667z" fill="#9fb0fe"/><path d="m73.327 110.258a9.257 9.257 0 0 1 -18.513 0z" fill="#b7c5ff"/><path d="m45.738 92.248h36.666v9.002h-36.666z" fill="#839afe"/><g fill="#2030a0"><path d="m80.682 80.9a27.759 27.759 0 0 0 -15.445-49.98 27.772 27.772 0 0 0 -18.613 49.354 4.31 4.31 0 0 1 1.653 3.342v6.884h-2.537a1.749 1.749 0 0 0 -1.75 1.75v9a1.749 1.749 0 0 0 1.75 1.75h2.247v7.258a1.749 1.749 0 0 0 1.75 1.75h3.481a10.993 10.993 0 0 0 21.706 0h3.476a1.749 1.749 0 0 0 1.75-1.75v-7.258h2.25a1.749 1.749 0 0 0 1.75-1.75v-9a1.749 1.749 0 0 0 -1.75-1.75h-3.542v-6.124a4.338 4.338 0 0 1 1.824-3.476zm-16.6 36.85a7.525 7.525 0 0 1 -7.31-5.746h14.6a7.509 7.509 0 0 1 -7.291 5.75zm12.573-9.246h-25.168v-5.504h25.167zm-3.325-18.004a1.749 1.749 0 0 0 -1.75 1.75v.07a1.72 1.72 0 0 0 1.75 1.715l7.32-.035v5.5h-33.16v-5.5l5.37.035a1.78 1.78 0 0 0 1.75-1.785 1.749 1.749 0 0 0 -1.75-1.75h-1.083v-6.884a7.791 7.791 0 0 0 -2.954-6.064 24.271 24.271 0 0 1 16.277-43.135 24.469 24.469 0 0 1 23.247 24.34 24.055 24.055 0 0 1 -9.759 19.343 7.807 7.807 0 0 0 -3.23 6.276v6.124z"/><path d="m67.49 90.5h-8.8a1.75 1.75 0 0 0 -1.75 1.75v.07a1.72 1.72 0 0 0 1.75 1.715h8.8a1.78 1.78 0 0 0 1.75-1.785 1.749 1.749 0 0 0 -1.75-1.75z"/><path d="m20.247 58.919h-8.947a1.75 1.75 0 0 0 0 3.5h8.952a1.75 1.75 0 0 0 0-3.5z"/><path d="m31.709 90.264-6.595 6.595a1.75 1.75 0 0 0 2.475 2.475l6.595-6.6a1.75 1.75 0 0 0 -2.475-2.474z"/><path d="m95.6 91.082a1.75 1.75 0 0 0 -2.474 2.475l6.529 6.529a1.75 1.75 0 0 0 2.475-2.475z"/><path d="m116.705 59.982h-8.87a1.75 1.75 0 0 0 0 3.5h8.87a1.75 1.75 0 1 0 0-3.5z"/><path d="m100.411 23.067-6.006 6.006a1.75 1.75 0 0 0 2.475 2.475l6.006-6.006a1.75 1.75 0 0 0 -2.475-2.475z"/><path d="m64.532 18.625a1.749 1.749 0 0 0 1.75-1.75v-8.375a1.75 1.75 0 1 0 -3.5 0v8.379a1.749 1.749 0 0 0 1.75 1.746z"/><path d="m28.342 22.315a1.75 1.75 0 0 0 -2.475 2.474l6.055 6.056a1.75 1.75 0 0 0 2.478-2.475z"/><path d="m76.725 52.7a1.751 1.751 0 0 0 -1.814-.551l-6.448 1.834.889-8.7a1.752 1.752 0 0 0 -2.224-1.86l-12.88 3.69a1.753 1.753 0 0 0 -1.268 1.65l-.32 17.13a1.75 1.75 0 0 0 2.212 1.72l4.817-1.319.141 16.826a1.75 1.75 0 0 0 3.332.733l3.39-7.18a1.749 1.749 0 0 0 -3.164-1.494l-.122.257-.1-11.445a1.748 1.748 0 0 0 -2.212-1.672l-4.755 1.3.253-13.5 9.15-2.622-.887 8.7a1.751 1.751 0 0 0 2.219 1.862l5.169-1.471a1.754 1.754 0 0 0 .356 2.142 1.8 1.8 0 0 0 .389.267 1.749 1.749 0 0 0 2.41-.795l1.71-3.62a1.75 1.75 0 0 0 -.243-1.882z"/><path d="m71.947 61.137a1.755 1.755 0 0 0 -2.33.836l-3.77 7.99a1.75 1.75 0 0 0 3.166 1.494l3.77-7.99a1.751 1.751 0 0 0 -.836-2.33z"/></g></svg>
